<svg t="1752084253725" class="icon" viewBox="0 0 1024 1024" version="1.1" xmlns="http://www.w3.org/2000/svg" p-id="12265" width="200" height="200"><path d="M742.598284 285.873144a27.835438 27.835438 0 0 0-27.675464-27.835438h-499.118192a27.835438 27.835438 0 1 0 0 55.510901h499.118192a27.835438 27.835438 0 0 0 27.675464-27.675463zM521.834468 511.916094a27.675464 27.675464 0 0 0-27.835438-27.675464H215.804628a27.675464 27.675464 0 1 0 0 55.350928h278.194402A27.675464 27.675464 0 0 0 521.834468 511.916094zM215.804628 710.28358a27.835438 27.835438 0 1 0 0 55.510901h149.895431a27.835438 27.835438 0 1 0 0-55.510901z" fill="#333333" p-id="12266"></path><path d="M484.560577 968.48126H127.979023A72.468122 72.468122 0 0 1 55.510901 895.853164V127.979023A72.468122 72.468122 0 0 1 127.979023 55.510901h674.609428A72.628096 72.628096 0 0 1 875.216547 127.979023v311.149001a27.675464 27.675464 0 0 0 55.350927 0V127.979023a127.979023 127.979023 0 0 0-127.979023-127.979023H127.979023a127.979023 127.979023 0 0 0-127.979023 127.979023v767.874141a127.979023 127.979023 0 0 0 127.979023 127.979024h356.581554a27.675464 27.675464 0 0 0 0-55.350928z" fill="#333333" p-id="12267"></path><path d="M757.155897 490.639581A266.67629 266.67629 0 1 0 1023.832188 757.155897a266.516316 266.516316 0 0 0-266.676291-266.516316z m0 477.681705a211.165389 211.165389 0 1 1 211.165389-211.165389 211.325362 211.325362 0 0 1-211.165389 211.165389z" fill="#333333" p-id="12268"></path><path d="M847.86103 666.770712a25.435831 25.435831 0 0 0-36.154074 0l-54.391085 54.231111-54.231111-54.231111a25.595805 25.595805 0 0 0-36.154074 36.154074l54.231111 54.231111-54.231111 54.391085A25.595805 25.595805 0 0 0 702.924786 847.86103l54.231111-54.231111 54.391085 54.231111A25.595805 25.595805 0 0 0 847.86103 811.546982l-54.231111-54.391085L847.86103 702.924786a25.435831 25.435831 0 0 0 0-36.154074z" fill="#333333" p-id="12269"></path></svg>