<svg t="1747803947051" class="icon" viewBox="0 0 1036 1024" version="1.1" xmlns="http://www.w3.org/2000/svg" p-id="9291" width="200" height="200"><path d="M0.005085 955.810022V57.046713a56.176458 56.176458 0 1 1 112.342913 0v898.763309a56.176458 56.176458 0 1 1-112.342913 0z m346.901632-205.130096L148.618625 552.381831a56.166455 56.166455 0 0 1 0-91.916929L346.906717 262.17681a56.176458 56.176458 0 0 1 79.443274 79.443274L317.728168 450.231904h287.084107a56.176458 56.176458 0 1 1 0 112.342913h-287.084107l108.621823 108.721852a56.171456 56.171456 0 1 1-79.443274 79.433271z m0 0" p-id="9292"></path><path d="M1012.96185 57.676898V954.749712a56.066426 56.066426 0 1 1-112.132851 0V57.676898a56.066426 56.066426 0 1 1 112.132851 0zM666.800436 262.426883l197.897978 197.897978a56.066426 56.066426 0 0 1 0 91.756882L666.78043 749.999726a56.066426 56.066426 0 1 1-79.273225-79.283227l108.431767-108.451773H409.925179a56.066426 56.066426 0 1 1 0-112.132851h286.013793L587.537214 341.720113a56.068426 56.068426 0 0 1 79.29323-79.29323z m0 0" p-id="9293"></path></svg>