<svg t="1747803821025" class="icon" viewBox="0 0 1024 1024" version="1.1" xmlns="http://www.w3.org/2000/svg" p-id="7038" width="200" height="200"><path d="M150.869333 170.552889a36.977778 36.977778 0 1 0-73.955555 0v655.928889a36.977778 36.977778 0 1 0 73.955555 0V170.496zM556.088889 144.384a36.977778 36.977778 0 1 1 52.337778 52.337778L343.552 461.482667h566.613333a36.977778 36.977778 0 1 1 0 73.955555H343.608889l264.817778 264.760889a36.977778 36.977778 0 1 1-52.337778 52.337778L229.376 525.824a36.864 36.864 0 0 1-1.194667-53.475556l327.907556-327.964444z" fill="#707070" p-id="7039"></path></svg>