<svg t="1747803895847" class="icon" viewBox="0 0 1024 1024" version="1.1" xmlns="http://www.w3.org/2000/svg" p-id="8116" width="200" height="200"><path d="M414.492444 878.364444a36.977778 36.977778 0 0 1 2.446223-52.280888l257.308444-234.382223h-560.355555a36.977778 36.977778 0 0 1 0-73.955555h560.355555L416.938667 283.477333a36.977778 36.977778 0 0 1 49.777777-54.670222l327.850667 298.552889a36.864 36.864 0 0 1 0 54.897778l-327.850667 298.552889a36.977778 36.977778 0 0 1-52.224-2.446223zM873.244444 853.447111a36.977778 36.977778 0 1 0 73.955556 0v-597.333333a36.977778 36.977778 0 1 0-73.955556 0v597.333333z" fill="#797B7E" p-id="8117"></path></svg>