<svg t="1752082426735" class="icon" viewBox="0 0 1024 1024" version="1.1" xmlns="http://www.w3.org/2000/svg" p-id="6420" width="200" height="200"><path d="M559.05792 901.7856H128.4608c-16.38912 0-29.952-14.08-29.952-31.77984V150.76352c0-17.69984 13.56288-31.77984 29.952-31.77984h668.89216c16.38912 0 29.952 14.08 29.952 31.77984V494.26432a17.82784 17.82784 0 0 0 35.65568 0V150.76352c0-37.0944-29.21984-67.4304-65.60768-67.4304H128.4608C92.07296 83.33312 62.85312 113.66912 62.85312 150.76352v719.24224c0 37.0944 29.21984 67.4304 65.60768 67.4304h430.59712a17.82784 17.82784 0 1 0 0-35.65056z" fill="#273A6C" p-id="6421"></path><path d="M209.03936 303.63136m17.82272 0l400.77824 0q17.82272 0 17.82272 17.82272l0 0q0 17.82272-17.82272 17.82272l-400.77824 0q-17.82272 0-17.82272-17.82272l0 0q0-17.82272 17.82272-17.82272Z" fill="#273A6C" p-id="6422"></path><path d="M209.03936 483.29216m17.82272 0l349.43488 0q17.82272 0 17.82272 17.82272l0 0q0 17.82272-17.82272 17.82272l-349.43488 0q-17.82272 0-17.82272-17.82272l0 0q0-17.82272 17.82272-17.82272Z" fill="#273A6C" p-id="6423"></path><path d="M209.03936 662.95296m17.82272 0l246.74816 0q17.82272 0 17.82272 17.82272l0 0q0 17.82272-17.82272 17.82272l-246.74816 0q-17.82272 0-17.82272-17.82272l0 0q0-17.82272 17.82272-17.82272Z" fill="#273A6C" p-id="6424"></path><path d="M712.09984 866.99008a14.03904 14.03904 0 0 1-9.9328-23.98208l220.16512-220.1088a14.04928 14.04928 0 1 1 19.87072 19.8656l-220.16512 220.1088a14.0032 14.0032 0 0 1-9.9328 4.11648z m245.93408-53.85728c0-36.15232-29.41952-65.56672-65.5872-65.56672-36.15744 0-65.57696 29.4144-65.57696 65.56672 0 36.15744 29.41952 65.56672 65.58208 65.56672 36.16256 0 65.58208-29.40928 65.58208-65.56672z m-28.1088 0c0 20.6592-16.81408 37.46816-37.4784 37.46816-20.6592 0-37.47328-16.80896-37.47328-37.46816 0-20.65408 16.81408-37.46304 37.4784-37.46304 20.6592 0 37.4784 16.80896 37.4784 37.46304z m-112.42496-140.4928c0-36.15744-29.41952-65.57184-65.58208-65.57184-36.16256 0-65.58208 29.4144-65.58208 65.56672 0 36.15744 29.41952 65.56672 65.5872 65.56672 36.15744 0 65.57696-29.40928 65.57696-65.56672z m-28.1088 0c0 20.65408-16.80896 37.46304-37.47328 37.46304s-37.4784-16.80896-37.4784-37.46816 16.81408-37.46304 37.4784-37.46304c20.66432 0 37.4784 16.80384 37.4784 37.46304z" fill="#F6AC19" p-id="6425"></path></svg>