<svg t="1751908856717" class="icon" viewBox="0 0 1024 1024" version="1.1" xmlns="http://www.w3.org/2000/svg" p-id="5260" width="200" height="200"><path d="M958.89 480.435l-414.825-0.591 0.591-413.734H576.5c51.608 0 101.689 10.115 148.854 30.063 45.538 19.261 86.43 46.829 121.537 81.937 35.107 35.107 62.675 75.999 81.936 121.537 19.949 47.164 30.063 97.245 30.063 148.853v31.935z m-350.954-64.279l285.586 0.407C878.5 266.291 758.626 146.448 608.342 131.469l-0.406 284.687z" p-id="5261"></path><path d="M465 959.89c-53.835 0-106.078-10.551-155.276-31.359-47.503-20.093-90.159-48.85-126.782-85.473s-65.38-79.278-85.472-126.782C76.661 667.078 66.11 614.836 66.11 561c0-53.835 10.551-106.078 31.36-155.276 20.092-47.503 48.849-90.159 85.472-126.782s79.279-65.38 126.782-85.472c49.198-20.809 101.44-31.36 155.276-31.36h31.89v367h367V561c0 53.836-10.551 106.078-31.359 155.275-20.093 47.504-48.85 90.159-85.473 126.782s-79.278 65.38-126.782 85.473c-49.198 20.809-101.44 31.36-155.276 31.36z m-31.89-732.495C263.237 243.512 129.89 386.979 129.89 561c0 184.78 150.33 335.11 335.11 335.11 174.021 0 317.488-133.348 333.605-303.221H433.11V227.395z" p-id="5262"></path></svg>