<svg t="1752083751824" class="icon" viewBox="0 0 1024 1024" version="1.1" xmlns="http://www.w3.org/2000/svg" p-id="8741" width="200" height="200"><path d="M213.540979 208.016661l156.759253 0c19.780509 0 35.815717-16.035208 35.815717-35.815717s-16.035208-35.815717-35.815717-35.815717L213.540979 136.385227c-19.780509 0-35.815717 16.035208-35.815717 35.815717S193.76047 208.016661 213.540979 208.016661z" fill="" p-id="8742"></path><path d="M215.176223 688.547948c-19.120476 0-34.675754 15.555278-34.675754 34.675754 0 19.1215 15.555278 34.676777 34.675754 34.676777s34.675754-15.555278 34.675754-34.676777C249.853 704.104249 234.296699 688.547948 215.176223 688.547948zM215.176223 739.713258c-9.092076 0-16.489556-7.397481-16.489556-16.489556 0-9.092076 7.397481-16.488533 16.489556-16.488533s16.489556 7.397481 16.489556 16.488533C231.665779 732.316801 224.269321 739.713258 215.176223 739.713258z" fill="" p-id="8743"></path><path d="M805.513382 688.547948c-19.120476 0-34.675754 15.555278-34.675754 34.675754 0 19.1215 15.555278 34.676777 34.675754 34.676777 19.1215 0 34.676777-15.555278 34.676777-34.676777C840.190159 704.104249 824.634882 688.547948 805.513382 688.547948zM805.513382 739.713258c-9.092076 0-16.488533-7.397481-16.488533-16.489556 0-9.092076 7.397481-16.488533 16.488533-16.488533 9.093099 0 16.489556 7.397481 16.489556 16.488533C822.002938 732.316801 814.606481 739.713258 805.513382 739.713258z" fill="" p-id="8744"></path><path d="M920.649656 608.087429L920.649656 608.087429l9.616008-0.001023c19.778462 0 35.815717-16.036231 35.815717-35.815717 0-19.780509-16.035208-35.815717-35.815717-35.815717l-570.57507-0.001023 0-68.562539L359.690594 325.83809l0-64.611553c0-19.780509-16.035208-35.815717-35.815717-35.815717l-99.05604 0c-13.815657 0-26.400277 7.946996-32.338522 20.422122L88.81428 463.605803c-1.650593 3.489474-36.890188 79.988776 4.362354 151.908782-25.391297 28.725228-40.827871 66.446341-40.827871 107.709117 0 89.782839 73.043596 162.827459 162.827459 162.827459 85.565794 0 155.927305-66.342987 162.348552-150.290935l265.638009 0c6.42227 83.947947 76.784804 150.290935 162.349575 150.290935 89.782839 0 162.827459-73.04462 162.827459-162.827459C968.340841 679.730119 951.403077 638.84085 920.649656 608.087429zM145.268036 528.651238c1.685385-19.116383 7.875365-33.443693 8.376785-34.577516l93.792153-197.030445 40.623209 0 0 28.795836 0 142.05332 0 69.586868c0 38.932708 31.67542 70.607104 70.608128 70.607104l331.820338 0.001023c-20.774139 20.75265-35.972283 47.078225-43.161009 76.509535L373.41006 684.596963c-6.956436-28.724205-21.667485-55.078433-43.097564-76.508511-30.754444-30.754444-71.643714-47.690162-115.136274-47.690162-22.402219 0-43.760666 4.548596-63.204507 12.768815C146.077471 559.958268 143.821081 545.05893 145.268036 528.651238zM215.176223 814.419727c-50.285267 0-91.196025-40.910759-91.196025-91.196025 0-50.285267 40.910759-91.195002 91.196025-91.195002 24.358781 0 47.260373 9.486048 64.484663 26.710338s26.710338 40.125883 26.710338 64.485687C306.372248 773.509992 265.462512 814.419727 215.176223 814.419727zM805.513382 814.419727c-50.28629 0-91.196025-40.910759-91.196025-91.196025 0-50.285267 40.910759-91.195002 91.197048-91.195002 24.358781 0 47.260373 9.486048 64.484663 26.710338 17.225313 17.22429 26.711362 40.125883 26.711362 64.485687C896.709407 773.509992 855.799672 814.419727 805.513382 814.419727z" fill="" p-id="8745"></path><path d="M599.122755 482.663858c12.875239 10.508331 29.561269 16.295128 46.982034 16.295128l241.436818 0c17.420765 0 34.105772-5.786797 46.981011-16.295128 14.775518-12.059664 23.25054-29.411867 23.25054-47.609321L957.773158 310.673715c0-18.197454-8.473999-35.550681-23.251563-47.609321-12.874215-10.508331-29.560246-16.294105-46.979988-16.294105L646.104789 246.77029c-17.420765 0-34.106796 5.786797-46.982034 16.294105-14.775518 12.05864-23.25054 29.411867-23.25054 47.609321l0 124.380822C575.872215 453.251991 584.346213 470.605218 599.122755 482.663858zM647.503649 318.401724l238.637052 0 0 108.925828L647.503649 427.327552 647.503649 318.401724z" fill="" p-id="8746"></path></svg>