<svg t="1750868308214" class="icon" viewBox="0 0 1024 1024" version="1.1" xmlns="http://www.w3.org/2000/svg" p-id="5673" width="200" height="200"><path d="M981.623 855.578h-29.844v25.33c0 22.764-11.035 42.945-28.037 55.512h57.881c17.717 0 32.133-18.09 32.133-40.42 0-22.334-14.416-40.422-32.133-40.422zM813.809 880.908v-25.33H35.37c-17.751 0-32.134 18.088-32.134 40.422 0 22.33 14.383 40.42 32.134 40.42h806.476c-17.004-12.566-28.037-32.748-28.037-55.512zM75.925 815.156h645.649a68.624 68.624 0 0 1-11.244-37.727c0-38.096 30.889-68.984 68.986-68.984h34.492v-34.492c0-38.098 30.889-68.986 68.984-68.986 12.838 0 24.85 3.52 35.145 9.627-59.076-153.175-204.949-264.929-378.52-277.347v-49.162c42.09-13.364 72.59-52.126 72.59-97.759 0-56.649-47.023-102.746-104.842-102.746-57.819 0-104.841 46.097-104.841 102.746 0 45.624 30.5 84.395 72.572 97.759v49.162C252.38 353.171 75.387 532.362 68.447 752.791c-14.214 3.301-24.791 15.814-24.791 30.754 0 17.463 14.451 31.611 32.269 31.611z m392.152-626.523c0-22.282 18.121-40.42 40.42-40.42 22.298 0 40.419 18.139 40.419 40.42 0 22.291-18.137 40.421-40.419 40.421-22.299 0-40.42-18.131-40.42-40.421z m-280.69 361.009a363.92 363.92 0 0 1 88.016-96.766 364.39 364.39 0 0 1 28.059-19.419c7.074-4.413 16.404-2.282 20.834 4.767 4.428 7.04 2.29 16.336-4.767 20.75a327.196 327.196 0 0 0-25.735 17.802 333.086 333.086 0 0 0-80.707 88.749c-4.396 7.041-13.709 9.23-20.816 4.851-7.074-4.381-9.264-13.66-4.884-20.734z m-41.752 81.936a394.315 394.315 0 0 1 11.199-29.354c3.453-8.121 12.295-11.641 19.706-7.867 7.443 3.807 10.662 13.475 7.191 21.609a387.265 387.265 0 0 0-10.256 26.881c-2.829 8.4-11.385 12.73-19.065 9.615-7.681-3.132-11.621-12.462-8.775-20.884z" fill="#F5AF1A" p-id="5674"></path><path d="M1020.764 777.43c0-19.049-15.443-34.49-34.492-34.49h-68.986v-68.986c0-19.051-15.445-34.492-34.492-34.492s-34.49 15.441-34.49 34.492v68.986h-68.986c-19.049 0-34.492 15.441-34.492 34.49s15.443 34.492 34.492 34.492h68.986v68.986c0 19.049 15.443 34.49 34.49 34.49s34.492-15.441 34.492-34.49v-68.986h68.986c19.048 0 34.492-15.443 34.492-34.492z" fill="#F5AF1A" p-id="5675"></path></svg>