<svg t="1750758666268" class="icon" viewBox="0 0 1024 1024" version="1.1" xmlns="http://www.w3.org/2000/svg" p-id="5161" width="200" height="200"><path d="M282.06 324.39h263c16.79 0 28 11.19 28 28s-11.19 28-28 28h-263c-16.79 0-28-11.19-28-28s16.79-28 28-28z m0 190.28h263c16.79 0 28 11.19 28 28s-11.19 28-28 28h-263c-16.79 0-28-11.19-28-28s16.79-28 28-28z m654.79 335.79H511.52v-33.58C511.52 693.76 612.26 593 735.38 593s223.86 100.76 223.86 223.88v11.19h-22.39z m-380.56-44.77h358.18c-5.6-95.14-84-167.9-179.09-167.9s-173.49 72.76-179.09 167.9z m380.56 151.1h-403c-11.19 0-22.38-11.19-22.38-22.38S522.71 912 533.9 912h403c11.2 0 22.39 11.19 22.39 22.39s-11.19 22.38-22.39 22.38z m0 0" fill="#1296db" p-id="5162"></path><path d="M735.38 637.79c-11.19 0-22.38-11.19-22.38-22.38v-78.36c0-11.19 11.19-22.38 22.38-22.38s22.38 11.19 22.38 22.38v78.36c0 16.79-11.19 22.38-22.38 22.38zM332.43 951.2H86.18C75 951.2 63.8 940 63.8 928.81V89.33C63.8 78.14 75 67 86.18 67H741c11.19 0 22.38 11.19 22.38 22.38v246.2c0 11.19-11.19 22.38-22.38 22.38s-22.39-11.19-22.39-22.38V111.72H114.16v794.7H338c11.19 0 22.38 11.19 22.38 22.39-5.6 11.19-11.19 22.39-28 22.39z m0 0" fill="#1296db" p-id="5163"></path></svg>