<svg t="1752083902589" class="icon" viewBox="0 0 1024 1024" version="1.1" xmlns="http://www.w3.org/2000/svg" p-id="10881" width="200" height="200"><path d="M921.6 1004.8H102.4a25.6 25.6 0 0 1-25.6-25.6V108.8a25.6 25.6 0 0 1 25.6-25.6h204.8v51.2H128v819.2h768V134.4h-179.2v-51.2h204.8a25.6 25.6 0 0 1 25.6 25.6v870.4a25.6 25.6 0 0 1-25.6 25.6z" p-id="10882"></path><path d="M446.912 407.36h-192a25.6 25.6 0 1 1 0-51.2h192a25.6 25.6 0 1 1 0 51.2zM758.912 586.56H254.912a25.6 25.6 0 1 1 0-51.2h504a25.6 25.6 0 1 1 0 51.2zM626.112 765.76h-371.2a25.6 25.6 0 1 1 0-51.2h371.2a25.6 25.6 0 1 1 0 51.2zM678.4 198.4H345.6a51.264 51.264 0 0 1-51.2-51.2V70.4c0-28.224 22.976-51.2 51.2-51.2h332.8c28.224 0 51.2 22.976 51.2 51.2v76.8c0 28.224-22.976 51.2-51.2 51.2z m-332.8-128v76.8h332.8V70.4H345.6z" p-id="10883"></path></svg>