<svg t="1752084369537" class="icon" viewBox="0 0 1024 1024" version="1.1" xmlns="http://www.w3.org/2000/svg" p-id="14430" width="200" height="200"><path d="M805.410133 218.589867l-3.345066-3.345067C639.249067 57.412267 378.197333 58.914133 218.794667 218.3168a416.904533 416.904533 0 0 0-0.2048 587.093333l3.345066 3.345067c162.816 157.832533 423.799467 156.330667 583.338667-3.140267a416.836267 416.836267 0 0 0 0.136533-587.093333z m45.056 631.944533c-184.32 184.251733-485.102933 185.9584-673.109333 3.754667l-3.822933-3.754667a480.733867 480.733867 0 0 1 0.136533-677.137067c184.183467-184.1152 484.9664-185.890133 672.9728-3.6864l3.959467 3.8912c185.685333 189.508267 185.685333 489.198933-0.136534 676.932267z" fill="#999999" p-id="14431"></path><path d="M603.613867 271.1552l-43.4176 35.157333a211.899733 211.899733 0 0 0-51.677867-49.698133l40.277333-36.522667c16.520533 17.271467 33.723733 33.1776 54.818134 51.063467z m67.584 509.610667H389.9392v53.725866h-52.292267c2.525867-27.8528 3.140267-53.111467 3.140267-82.944v-66.3552c0-23.210667-0.6144-35.84-2.525867-49.7664 20.48 2.048 65.058133 2.730667 193.9456 2.730667 128.887467 0 172.919467-0.682667 192.034134-2.730667-1.911467 11.264-2.525867 23.893333-2.525867 49.834667v58.299733c0 29.9008 0.682667 55.0912 1.911467 82.944h-52.292267v-45.738666z m-281.326934-37.205334h281.3952v-68.266666H389.802667v68.266666zM378.402133 347.477333v45.124267h150.528v-46.421333H379.016533l-0.682666 1.365333z m0 244.804267v28.535467h-54.272c3.822933-18.568533 6.417067-46.421333 6.417067-69.632V424.482133c-16.5888 22.528-34.474667 43.076267-55.5008 65.672534-10.922667-15.9744-21.7088-25.258667-40.209067-35.84 35.703467-29.218133 62.532267-59.050667 95.709867-111.479467 23.620267-38.5024 42.734933-80.964267 51.063467-110.7968 17.2032 9.284267 37.000533 17.271467 50.3808 19.933867 13.380267 2.594133 14.677333 6.621867 0.682666 17.2032-7.099733 5.3248-15.9744 16.5888-31.9488 41.1648h169.096534c139.0592 0 183.7056-1.365333 206.0288-3.345067v42.461867c-23.620267-1.365333-63.761067-3.2768-200.2944-3.2768v46.421333c110.318933 0 146.090667-1.365333 166.5024-3.345067v42.461867c-22.3232-1.297067-54.8864-2.594133-166.570667-3.2768v46.421333c112.981333 0 149.367467-1.365333 169.7792-3.2768v42.461867c-22.3232-2.730667-55.5008-3.345067-169.710933-3.345067v45.738667c138.4448 0 183.0912-1.297067 205.4144-3.2768v42.461867c-24.234667-2.6624-65.058133-3.345067-206.097067-3.345067H378.402133z m0-81.578667v45.738667h150.528v-45.738667H378.402133z m0-82.261333v46.421333h150.528v-46.421333H378.402133z" fill="#999999" p-id="14432"></path></svg>