<svg t="1752084316035" class="icon" viewBox="0 0 1024 1024" version="1.1" xmlns="http://www.w3.org/2000/svg" p-id="13293" width="200" height="200"><path d="M512 5.12c279.9616 0 506.88 226.9184 506.88 506.88s-226.9184 506.88-506.88 506.88S5.12 791.9616 5.12 512 232.0384 5.12 512 5.12z m339.712 237.312L789.0944 304.128l0.0512 8.9088-9.0112-0.0512-52.5312 51.8144h30.3616v40.448H686.592l-50.3808 49.664h123.136v40.448h-164.1472l-21.8112 21.504v31.744h227.1232v43.264H497.3056L441.1392 647.168h313.9584v207.2576h-50.3808v-34.816H328.6016v34.7648h-50.3808l-0.0512-46.5408-40.4992 39.9872A433.664 433.664 0 0 0 851.712 242.3808v0.0512zM512 78.336a433.664 433.664 0 0 0-327.0144 718.5408l93.184-91.8528v-57.856H336.896l56.1664-55.3472H278.2208V385.3312a783.872 783.872 0 0 1-83.7632 83.7632l-15.5648-50.432c73.728-67.3792 126.3104-141.1584 156.8256-220.672l49.664 9.9328c-8.5504 21.2992-17.7152 41.8304-28.3648 62.464h175.9232a470.3232 470.3232 0 0 0-34.7136-65.3312l52.48-8.448c11.3664 21.9648 22.016 46.7456 31.8976 73.7792l136.448-0.0512 82.432-81.2032A432.0256 432.0256 0 0 0 512 78.336z m192.7168 612.864H396.544l-67.9936 66.9696v16.0768h376.1664v-83.1488 0.0512zM490.9056 495.2064H327.168v53.248h109.7728l53.9648-53.248z m32.1536-90.112H327.168v49.7664h195.8912v-49.7664z m59.2384 0H573.44l-0.0512 8.8064 8.9088-8.8064z m41.0624-40.448L675.84 312.8832h-102.5024v51.8144h49.9712z m-100.352-51.8144H332.1856a47.7696 47.7696 0 0 0-4.9664 7.8848v43.9296h195.8912V312.8832z" fill="#666666" p-id="13294"></path></svg>