<svg t="1752082243068" class="icon" viewBox="0 0 1144 1024" version="1.1" xmlns="http://www.w3.org/2000/svg" p-id="4379" width="200" height="200"><path d="M503.808 10.752C356.864 10.752 238.08 129.536 238.08 276.48s118.784 265.728 265.728 265.728 265.728-118.784 265.728-265.728S650.752 10.752 503.808 10.752z" p-id="4380"></path><path d="M396.8 251.904v-39.424c0-11.776 9.728-21.504 21.504-21.504h5.12c11.776 0 21.504 9.728 21.504 21.504v39.424c0 11.776-9.728 21.504-21.504 21.504h-5.12c-11.776 0-21.504-9.728-21.504-21.504zM503.808 418.304c-47.104 0-85.504-28.16-85.504-62.976h171.008c0 34.816-38.4 62.976-85.504 62.976zM610.816 251.904c0 11.776-9.728 21.504-21.504 21.504h-5.12c-11.776 0-21.504-9.728-21.504-21.504v-39.424c0-11.776 9.728-21.504 21.504-21.504h5.12c11.776 0 21.504 9.728 21.504 21.504v39.424zM936.96 601.088c-114.688 0-207.872 93.184-207.872 207.872 0 114.688 93.184 207.872 207.872 207.872 114.688 0 207.872-93.184 207.872-207.872 0-114.688-93.184-207.872-207.872-207.872z m102.4 243.712c11.776 0 18.944 7.68 18.944 18.944 0 11.776-7.68 18.944-18.944 18.944h-76.8v74.24c0 11.776-7.68 18.944-18.944 18.944-11.776 0-18.944-7.68-18.944-18.944v-74.24h-76.288c-11.776 0-18.944-7.68-18.944-18.944s7.68-18.944 18.944-18.944h76.288v-46.08h-78.336c-11.776 0-18.944-7.68-18.944-18.944 0-11.776 7.68-18.944 18.944-18.944h56.832l-62.976-62.976c-7.68-7.68-7.68-18.944 0-26.624s18.944-7.68 26.624 0l76.288 76.288 76.288-76.288c7.68-7.68 18.944-7.68 26.624 0s7.68 18.944 0 26.624L983.04 760.832h57.856c11.776 0 18.944 7.68 18.944 18.944 0 11.776-7.68 18.944-18.944 18.944H962.56v46.08h76.8z" p-id="4381"></path><path d="M667.648 808.96c0-78.848 40.96-147.968 102.4-187.904-47.616-23.552-100.352-36.352-156.672-36.352H410.624c-196.096 0-356.864 160.768-356.864 356.864v59.904c0 4.096 0.512 7.68 0.512 11.776h745.984c-78.336-34.816-132.608-113.152-132.608-204.288z" p-id="4382"></path></svg>